#!OML:ASF H:\ManfredETheater\Project 1\Capture day 1\Session 1\subject.ASF
:FULLY-SPECIFIED
:DEGREES
77
root 0.993524 15.3557 -6.5508 -195.769 -6.55053 179.799
lowerback 15.1817 -1.81819 -0.561267
upperback -0.0118626 -2.49954 1.77462
thorax -8.43973 -1.19914 2.78325
lowerneck -15.9001 -1.80817 -3.21803
upperneck 13.8982 -1.75125 -0.161624
head 6.88892 -1.05902 0.284215
rclavicle 5.46658e-015 -7.95139e-015
rhumerus -57.2912 -1.43351 -81.586
rradius 93.2173
rwrist -2.89247
rhand -25.5105 13.0494
rfingers 7.12502
rthumb 1.01852 -16.9279
lclavicle 5.46658e-015 -7.95139e-015
lhumerus -41.6526 -11.1861 96.0131
lradius 92.4462
lwrist 0.0882756
lhand -27.3396 -12.3071
lfingers 7.12502
lthumb -0.748067 17.6713
rfemur -35.3861 -4.82617 20.8223
rtibia 49.5184
rfoot 3.8527 -2.72513
rtoes -6.69578
lfemur -20.2854 -3.81296 -14.2956
ltibia 88.3992
lfoot -10.5752 -24.8127
ltoes -6.43206
78
root 1.01355 15.3769 -6.80876 -195.906 -6.51692 179.886
lowerback 15.1967 -1.71501 -0.544728
upperback -0.0237054 -2.35345 1.87263
thorax -8.4646 -1.12768 2.84862
lowerneck -15.9967 -1.82347 -3.18536
upperneck 13.9664 -1.76103 -0.25091
head 6.92659 -1.07102 0.247766
rclavicle 4.82053e-014 7.95139e-016
rhumerus -56.2331 -0.688763 -81.5282
rradius 92.0858
rwrist -2.93503
rhand -25.7049 13.0619
rfingers 7.12502
rthumb 0.830798 -16.9163
lclavicle 4.82053e-014 7.95139e-016
lhumerus -41.4634 -10.1572 96.0635
lradius 91.6162
lwrist -1.92323
lhand -27.7283 -12.4497
lfingers 7.12502
lthumb -1.12351 17.527
rfemur -35.0826 -4.80071 21.0761
rtibia 51.0081
rfoot 2.7405 -2.92317
rtoes -6.19499
lfemur -20.4676 -3.8078 -13.9128
ltibia 88.7404
lfoot -11.3359 -23.3908
ltoes -6.92407
79
root 1.03603 15.4062 -7.05977 -195.951 -6.68606 179.917
lowerback 15.1008 -1.67134 -0.679767
upperback -0.0405395 -2.31178 1.95986
thorax -8.42198 -1.10054 3.00597
lowerneck -16.0902 -1.82936 -3.12478
upperneck 14.0234 -1.76402 -0.341869
head 6.95975 -1.07818 0.207013
rclavicle 1.94809e-014 -1.19271e-014
rhumerus -55.0351 0.0947953 -81.4571
rradius 90.7202
rwrist -2.91712
rhand -25.8465 13.0251
rfingers 7.12502
rthumb 0.693989 -16.9535
lclavicle 1.94809e-014 -1.19271e-014
lhumerus -41.3382 -9.04767 96.085
lradius 90.6173
lwrist -3.79464
lhand -28.2177 -12.3854
lfingers 7.12502
lthumb -1.59613 17.5884
rfemur -34.727 -4.90601 21.2035
rtibia 52.2645
rfoot 1.55352 -3.25661
rtoes -6.61515
lfemur -20.8824 -3.86469 -13.7225
ltibia 89.0102
lfoot -12.2305 -21.3821
ltoes -7.16004
80
root 1.06094 15.4432 -7.30364 -195.916 -7.06579 179.919
lowerback 14.9167 -1.69111 -0.920868
upperback -0.0736452 -2.37097 2.03302
thorax -8.33813 -1.11749 3.22633
lowerneck -16.1656 -1.83181 -3.05151
upperneck 14.086 -1.76869 -0.418679
head 6.99162 -1.08435 0.168691
rclavicle 1.63003e-014 -1.59028e-014
rhumerus -53.7441 0.854886 -81.3644
rradius 89.1474
rwrist -2.78641
rhand -25.8958 12.9126
rfingers 7.12502
rthumb 0.64641 -17.0661
lclavicle 1.63003e-014 -1.59028e-014
lhumerus -41.2656 -7.94133 96.0722
lradius 89.4343
lwrist -5.38644
lhand -28.7448 -12.0815
lfingers 7.12502
lthumb -2.10521 17.8879
rfemur -34.3292 -5.10963 21.2235
rtibia 53.3063
rfoot 0.359398 -3.67206
rtoes -7.20069
lfemur -21.5168 -3.98478 -13.687
ltibia 89.1929
lfoot -13.0764 -19.0234
ltoes -7.02195
81
root 1.0866 15.4872 -7.53938 -195.831 -7.5691 179.963
lowerback 14.6863 -1.75697 -1.14695
upperback -0.125805 -2.48657 2.10832
thorax -8.24502 -1.16209 3.45034
lowerneck -16.2225 -1.83981 -2.98049
upperneck 14.1754 -1.78456 -0.480194
head 7.02932 -1.09531 0.134441
rclavicle 1.25234e-014 3.18055e-014
rhumerus -52.4057 1.53506 -81.2409
rradius 87.4179
rwrist -2.51106
rhand -25.8232 12.7107
rfingers 7.12502
rthumb 0.716551 -17.2679
lclavicle 1.25234e-014 3.18055e-014
lhumerus -41.2314 -6.90609 96.0323
lradius 88.0773
lwrist -6.57194
lhand -29.2231 -11.5388
lfingers 7.12502
lthumb -2.56721 18.4255
rfemur -33.8832 -5.34419 21.2396
rtibia 54.1481
rfoot -0.768247 -4.19724
rtoes -7.94743
lfemur -22.3197 -4.10013 -13.6904
ltibia 89.2753
lfoot -13.8042 -16.5845
ltoes -6.50756
82
root 1.11028 15.5383 -7.76633 -195.722 -8.10278 180.089
lowerback 14.4413 -1.84528 -1.25415
upperback -0.194774 -2.61067 2.19046
thorax -8.16481 -1.21551 3.61512
lowerneck -16.2584 -1.86211 -2.92641
upperneck 14.2872 -1.82079 -0.522854
head 7.07135 -1.11581 0.106847
rclavicle -4.51241e-014 3.4191e-014
rhumerus -51.0609 2.0837 -81.0846
rradius 85.5904
rwrist -2.08462
rhand -25.634 12.4273
rfingers 7.12502
rthumb 0.8992 -17.5505
lclavicle -4.51241e-014 3.4191e-014
lhumerus -41.2114 -6.0154 95.9765
lradius 86.5629
lwrist -7.24983
lhand -29.5818 -10.784
lfingers 7.12502
lthumb -2.91357 19.1758
rfemur -33.3825 -5.5683 21.323
rtibia 54.7853
rfoot -1.77536 -4.77448
rtoes -8.57947
lfemur -23.2232 -4.14882 -13.6676
ltibia 89.233
lfoot -14.437 -14.3007
ltoes -5.79147
83
root 1.12966 15.5965 -7.98367 -195.623 -8.59914 180.299
lowerback 14.2338 -1.93437 -1.18907
upperback -0.275111 -2.7079 2.27757
thorax -8.12656 -1.26263 3.68382
lowerneck -16.2789 -1.90557 -2.91458
upperneck 14.4231 -1.88304 -0.531787
head 7.11968 -1.1486 0.0941662
rclavicle 6.16232e-015 1.35174e-014
rhumerus -49.7576 2.47152 -80.8991
rradius 83.7391
rwrist -1.54321
rhand -25.3474 12.091
rfingers 7.12502
rthumb 1.17607 -17.8855
lclavicle 6.16232e-015 1.35174e-014
lhumerus -41.2076 -5.30379 95.9216
lradius 84.9399
lwrist -7.37895
lhand -29.7759 -9.87237
lfingers 7.12502
lthumb -3.10101 20.0848
rfemur -32.7961 -5.76471 21.4983
rtibia 55.2018
rfoot -2.65183 -5.36106
rtoes -9.19987
lfemur -24.1407 -4.09885 -13.6057
ltibia 89.0366
lfoot -15.0148 -12.3363
ltoes -5.00858
84
root 1.14431 15.6618 -8.19171 -195.541 -8.99716 180.575
lowerback 14.0667 -1.99841 -0.954081
upperback -0.360825 -2.74562 2.3673
thorax -8.12855 -1.2878 3.64915
lowerneck -16.2954 -1.97165 -2.94198
upperneck 14.5751 -1.97167 -0.517068
head 7.17364 -1.1944 0.0925241
rclavicle 1.80894e-014 7.95139e-016
rhumerus -48.534 2.68683 -80.6928
rradius 81.9323
rwrist -0.942314
rhand -25.0241 11.7409
rfingers 7.12502
rthumb 1.4883 -18.2336
lclavicle 1.80894e-014 7.95139e-016
lhumerus -41.219 -4.79536 95.8805
lradius 83.2532
lwrist -6.95428
lhand -29.7825 -8.91005
lfingers 7.12502
lthumb -3.10741 21.0471
rfemur -32.1139 -5.90289 21.7692
rtibia 55.3919
rfoot -3.40396 -5.92337
rtoes -9.7118
lfemur -25.0141 -3.91591 -13.5084
ltibia 88.6561
lfoot -15.5857 -10.7816
ltoes -4.45569
85
root 1.15433 15.7344 -8.39079 -195.457 -9.27301 180.868
lowerback 13.9374 -2.02099 -0.59826
upperback -0.454711 -2.71014 2.45038
thorax -8.1715 -1.28234 3.52663
lowerneck -16.32 -2.05964 -3.00381
upperneck 14.7413 -2.08463 -0.487785
head 7.23463 -1.25269 0.0982676
rclavicle -1.26228e-014 5.48646e-014
rhumerus -47.4127 2.7435 -80.4765
rradius 80.2199
rwrist -0.367444
rhand -24.7251 11.4
rfingers 7.12502
rthumb 1.77709 -18.5724
lclavicle -1.26228e-014 5.48646e-014
lhumerus -41.2561 -4.48746 95.8613
lradius 81.5506
lwrist -6.05498
lhand -29.6162 -7.96043
lfingers 7.12502
lthumb -2.94681 21.999
rfemur -31.3594 -5.96492 22.0964
rtibia 55.3671
rfoot -4.03874 -6.45554
rtoes -10.0913
lfemur -25.8164 -3.59927 -13.4234
ltibia 88.0702
lfoot -16.1507 -9.67171
ltoes -4.16582
86
root 1.16038 15.8134 -8.58236 -195.342 -9.44919 181.106
lowerback 13.8177 -1.99918 -0.210842
upperback -0.559005 -2.61162 2.51155
thorax -8.23678 -1.24771 3.35105
lowerneck -16.359 -2.165 -3.09331
upperneck 14.9169 -2.21558 -0.451574
head 7.30203 -1.32065 0.108427
rclavicle -8.01102e-014 1.66979e-014
rhumerus -46.4233 2.68506 -80.2627
rradius 78.6537
rwrist 0.0898329
rhand -24.509 11.0705
rfingers 7.12502
rthumb 1.98575 -18.9
lclavicle -8.01102e-014 1.66979e-014
lhumerus -41.3317 -4.36067 95.8684
lradius 79.8713
lwrist -4.78772
lhand -29.3247 -7.08337
lfingers 7.12502
lthumb -2.66526 22.8797
rfemur -30.5643 -5.9597 22.3994
rtibia 55.1575
rfoot -4.57701 -6.94906
rtoes -10.364
lfemur -26.5443 -3.19017 -13.4379
ltibia 87.2682
lfoot -16.687 -8.97073
ltoes -4.09678
87
root 1.16384 15.8971 -8.76721 -195.177 -9.53484 181.293
lowerback 13.6871 -1.93601 0.183446
upperback -0.672155 -2.45777 2.55785
thorax -8.30804 -1.18699 3.14436
lowerneck -16.4247 -2.282 -3.19709
upperneck 15.0944 -2.35746 -0.416241
head 7.37533 -1.39457 0.118927
rclavicle -3.77691e-015 -4.21423e-014
rhumerus -45.5558 2.55114 -80.0613
rradius 77.2477
rwrist 0.352277
rhand -24.4103 10.7466
rfingers 7.12502
rthumb 2.08108 -19.223
lclavicle -3.77691e-015 -4.21423e-014
lhumerus -41.4405 -4.38127 95.8971
lradius 78.2297
lwrist -3.32269
lhand -28.9462 -6.33003
lfingers 7.12502
lthumb -2.29975 23.6373
rfemur -29.766 -5.87156 22.6831
rtibia 54.799
rfoot -5.03445 -7.42055
rtoes -10.5318
lfemur -27.2169 -2.716 -13.5358
ltibia 86.2603
lfoot -17.1894 -8.63109
ltoes -4.22266
88
root 1.16539 15.9839 -8.94646 -194.944 -9.55963 181.406
lowerback 13.5191 -1.84148 0.536075
upperback -0.790418 -2.27018 2.58539
thorax -8.36229 -1.10878 2.93276
lowerneck -16.5141 -2.40356 -3.3038
upperneck 15.2513 -2.50161 -0.387463
head 7.44626 -1.46964 0.127196
rclavicle -4.77083e-014 -1.82882e-014
rhumerus -44.7869 2.38353 -79.883
rradius 75.9971
rwrist 0.382783
rhand -24.4282 10.4109
rfingers 7.12502
rthumb 2.06378 -19.5588
lclavicle -4.77083e-014 -1.82882e-014
lhumerus -41.5777 -4.50764 95.9378
lradius 76.6298
lwrist -1.84363
lhand -28.5352 -5.70482
lfingers 7.12502
lthumb -1.90283 24.2664
rfemur -28.9995 -5.71207 22.9103
rtibia 54.3315
rfoot -5.44626 -7.87083
rtoes -10.4929
lfemur -27.8476 -2.224 -13.7494
ltibia 85.0576
lfoot -17.6554 -8.56846
ltoes -4.51288
89
root 1.16615 16.0726 -9.12129 -194.647 -9.54893 181.457
lowerback 13.3026 -1.72695 0.832081
upperback -0.910419 -2.06683 2.60096
thorax -8.38757 -1.02111 2.73535
lowerneck -16.6197 -2.52676 -3.40628
upperneck 15.381 -2.64533 -0.368227
head 7.51118 -1.54433 0.131511
rclavicle -1.96797e-014 1.59028e-015
rhumerus -44.0966 2.21369 -79.7302
rradius 74.8833
rwrist 0.187773
rhand -24.5397 10.0581
rfingers 7.12502
rthumb 1.95617 -19.9127
lclavicle -1.96797e-014 1.59028e-015
lhumerus -41.7414 -4.70324 95.9828
lradius 75.0643
lwrist -0.525264
lhand -28.1237 -5.22656
lfingers 7.12502
lthumb -1.50538 24.7479
rfemur -28.2779 -5.49424 23.0878
rtibia 53.7875
rfoot -5.79459 -8.30427
rtoes -10.4759
lfemur -28.4388 -1.75141 -14.0587
ltibia 83.6776
lfoot -18.0794 -8.70895
ltoes -4.85724
90
root 1.16705 16.1621 -9.29255 -194.302 -9.53059 181.454
lowerback 13.0466 -1.60493 1.05753
upperback -1.02713 -1.86684 2.6075
thorax -8.38245 -0.932414 2.56772
lowerneck -16.7354 -2.64611 -3.5076
upperneck 15.4755 -2.78241 -0.346837
head 7.56644 -1.61455 0.137074
rclavicle 1.19271e-014 1.35174e-014
rhumerus -43.4594 2.0625 -79.6069
rradius 73.8765
rwrist -0.19816
rhand -24.7126 9.66792
rfingers 7.12502
rthumb 1.78912 -20.3043
lclavicle 1.19271e-014 1.35174e-014
lhumerus -41.9281 -4.92746 96.0214
lradius 73.5194
lwrist 0.461897
lhand -27.7335 -4.86119
lfingers 7.12502
lthumb -1.12854 25.1156
rfemur -27.5937 -5.23621 23.2151
rtibia 53.1929
rfoot -6.11391 -8.73711
rtoes -10.3456
lfemur -28.9739 -1.33181 -14.4499
ltibia 82.1343
lfoot -18.4646 -8.99298
ltoes -5.1971
